<svg width="510px" height="510px" viewBox="0 0 510 510" version="1.1" xmlns="http://www.w3.org/2000/svg" xmlns:xlink="http://www.w3.org/1999/xlink">
    <g id="Page-1" stroke="none" stroke-width="1" fill="none" fill-rule="evenodd">
        <g id="profile" transform="translate(-145.000000, -45.000000)" stroke="#409CF9" stroke-width="8.62068966">
            <g transform="translate(150.000000, 50.000000)">
                <path d="M62.875248,414.990094 C62.875248,414.990094 159.552571,380.421319 176.432823,373.468008 C193.313074,366.514697 193.313073,347.200061 193.313073,347.200061 C193.313073,347.200061 211.496288,347.200061 211.496288,347.200061 C211.496288,347.200061 194.950698,328.386551 191.005313,318.612456 C185.34612,304.592662 188.626621,287.831215 180.927966,287.831217 C167.862087,287.831221 157.528582,242.596336 167.307887,237.911361 C177.087193,233.226387 179.707377,235.810269 176.432824,221.028291 C169.041075,187.660476 158.268896,168.970564 167.307887,155.199774 C176.346878,141.428985 196.724728,130.377408 196.724728,130.377408 C196.724728,130.377408 201.544401,110.539403 241.998081,112.395714 C282.451762,114.252025 319.567795,144.826282 328.045024,163.286931 C336.485699,181.667978 329.643513,205.619546 323.052769,223.252392 C316.462024,240.885239 330.947893,229.87132 334.92169,239.309522 C338.895486,248.747724 324.598763,287.831224 313.428682,287.831222 C307.633356,287.83122 312.099884,304.286083 304.695788,318.612458 C297.829014,331.899155 284.63145,344.825923 284.63145,344.825923 L304.695788,344.825923 C304.695788,344.825923 305.284888,364.003804 322.097476,373.468002 C338.910064,382.9322 433.679048,418.592187 433.679048,418.592187 C433.679048,418.592187 373.592272,501.325539 251.654865,499.595442 C129.717459,497.865345 62.875248,414.990094 62.875248,414.990094 Z" id="Path-1" stroke-linejoin="round"></path>
                <path d="M250,500 C388.071187,500 500,388.071187 500,250 C500,111.928813 388.071187,0 250,0 C111.928813,0 0,111.928813 0,250 C0,388.071187 111.928813,500 250,500 Z" id="Oval-1"></path>
            </g>
        </g>
    </g>
</svg>